<svg id="Layer_1" data-name="Layer 1" xmlns="http://www.w3.org/2000/svg" viewBox="0 0 519 545"><defs><style>.cls-1{fill:#b2b8c9;stroke:#b2b8c9;stroke-miterlimit:10;stroke-width:20px;}.cls-2{fill:#f0f2f6;}</style></defs><title>karlotta gonzalez logo</title><path class="cls-1" d="M257.82,255.79H488.73v18c0,133.4-83.77,241.62-217.17,241.62S29.9,407.2,29.9,273.8,138.16,32.14,271.56,32.14a241.23,241.23,0,0,1,170.13,69.6l-9,8.37A229.53,229.53,0,1,0,271.56,503.22c127,0,203.64-105.65,203.64-229.38v-4.51H257.82Z"/><path class="cls-2" d="M353,420.49a122.42,122.42,0,0,1-14.52.89q-18.06,0-31.84-6.52a80.76,80.76,0,0,1-24-17.18,115.3,115.3,0,0,1-17.77-24.43q-7.55-13.78-13.77-28-5.34-13-10.22-25.62T231,296.53a101.68,101.68,0,0,0-11-18.22,31.36,31.36,0,0,0-13.62-10.66l2.07-9.48L343.86,133.46h62.79L258.2,261.67a64.36,64.36,0,0,1,11.9,14.12A136,136,0,0,1,278,292.23q3.69,9.19,7.55,19.4t8.29,20.29q4.45,9.78,9.78,19a77.47,77.47,0,0,0,12.14,16,55.64,55.64,0,0,0,15.55,11,46.19,46.19,0,0,0,20,4.14,60,60,0,0,0,9.77-.88Z"/><path class="cls-2" d="M201.45,307.72,178,421.12H142.58L214.69,98.71h35.36l-47,201.71Z"/></svg>