<?xml version="1.0" encoding="utf-8"?>
<!-- Generator: Adobe Illustrator 24.0.3, SVG Export Plug-In . SVG Version: 6.00 Build 0)  -->
<svg version="1.1" id="Layer_1" xmlns="http://www.w3.org/2000/svg" xmlns:xlink="http://www.w3.org/1999/xlink" x="0px" y="0px"
	 viewBox="0 0 193.6 200" style="enable-background:new 0 0 193.6 200;" xml:space="preserve">
<style type="text/css">
	.st0{fill:#8D6116;stroke:#8D6116;stroke-width:7.5563;stroke-miterlimit:10;}
	.st1{fill:#C36F3D;}
</style>
<title>karlotta gonzalez logo</title>
<g>
	<path class="st0" d="M94.9,92.9h87.2v6.8c0,50.4-31.7,91.3-82.1,91.3S8.8,150.1,8.8,99.7S49.7,8.4,100.1,8.4
		c24.1-0.1,47.2,9.4,64.3,26.3l-3.4,3.2c-34.1-33.6-89.1-33.2-122.6,1s-33.2,89,1,122.6c16.2,15.9,38,24.9,60.8,24.9
		c48,0,76.9-39.9,76.9-86.7V98H94.9V92.9z"/>
	<path class="st1" d="M130.8,155.1c-1.8,0.2-3.7,0.3-5.5,0.3c-4.5,0-8.5-0.8-12-2.5c-3.4-1.6-6.5-3.8-9.1-6.5
		c-2.6-2.8-4.9-5.9-6.7-9.2c-1.9-3.5-3.6-7-5.2-10.6c-1.3-3.3-2.6-6.5-3.9-9.7c-1.2-3.2-2.5-6.1-3.7-8.7c-1.1-2.4-2.5-4.7-4.2-6.9
		c-1.3-1.8-3.1-3.2-5.1-4l0.8-3.6l51.2-47.1h23.7L95,95.1c1.7,1.5,3.2,3.4,4.5,5.3c1.1,2,2.1,4.1,3,6.2c0.9,2.3,1.9,4.8,2.8,7.3
		c0.9,2.6,2,5.1,3.1,7.7c1.1,2.5,2.3,4.8,3.7,7.2c1.2,2.2,2.8,4.2,4.6,6c1.7,1.7,3.7,3.1,5.9,4.2c2.4,1.1,4.9,1.6,7.6,1.5
		c1.2,0,2.5-0.1,3.7-0.3L130.8,155.1z"/>
	<path class="st1" d="M73.6,112.5l-8.9,42.8H51.3L78.6,33.6H92l-17.8,76.2L73.6,112.5z"/>
</g>
</svg>
