<?xml version="1.0" encoding="utf-8"?>
<!-- Generator: Adobe Illustrator 24.0.3, SVG Export Plug-In . SVG Version: 6.00 Build 0)  -->
<svg version="1.1" id="Layer_1" xmlns="http://www.w3.org/2000/svg" xmlns:xlink="http://www.w3.org/1999/xlink" x="0px" y="0px"
	 viewBox="0 0 517 534" style="enable-background:new 0 0 517 534;" xml:space="preserve">
<style type="text/css">
	.st0{fill:#8D6116;stroke:#8D6116;stroke-width:20;stroke-miterlimit:10;}
	.st1{fill:#C36F3D;}
</style>
<title>karlotta gonzalez logo</title>
<g>
	<path class="st0" d="M254.1,250.6H485v18c0,133.4-83.8,241.6-217.2,241.6S26.2,402,26.2,268.6S134.5,27,267.9,27
		c63.7-0.2,124.8,24.9,170.1,69.6l-9,8.4c-90.3-88.9-235.7-87.8-324.6,2.6S16.6,343.2,107,432.1c42.9,42.2,100.7,65.9,160.9,65.9
		c127,0,203.6-105.6,203.6-229.4v-4.5H254.1V250.6z"/>
	<path class="st1" d="M349.3,415.3c-4.8,0.6-9.7,0.9-14.5,0.9c-12,0-22.6-2.2-31.8-6.5c-9-4.2-17.1-10-24-17.2
		c-7-7.3-12.9-15.5-17.8-24.4c-5-9.2-9.6-18.5-13.8-28c-3.5-8.7-7-17.2-10.2-25.6c-3.3-8.4-6.6-16.1-9.9-23.1
		c-3-6.4-6.7-12.5-11-18.2c-3.5-4.8-8.2-8.4-13.6-10.7l2.1-9.5l135.4-124.7H403L254.5,256.5c4.6,4.1,8.6,8.9,11.9,14.1
		c3,5.3,5.6,10.8,7.9,16.4c2.5,6.1,5,12.6,7.5,19.4s5.3,13.6,8.3,20.3c2.9,6.5,6.2,12.8,9.8,19c3.3,5.8,7.4,11.2,12.1,16
		c4.5,4.5,9.8,8.3,15.5,11c6.3,2.9,13.1,4.3,20,4.1c3.3,0,6.5-0.3,9.8-0.9L349.3,415.3z"/>
	<path class="st1" d="M197.8,302.5l-23.5,113.4h-35.4L211,93.5h35.4l-47,201.7L197.8,302.5z"/>
</g>
</svg>
